<?xml version="1.0" encoding="UTF-8"?>
<!DOCTYPE svg PUBLIC "-//W3C//DTD SVG 1.1//EN" "http://www.w3.org/Graphics/SVG/1.1/DTD/svg11.dtd">
<!-- Creator: CorelDRAW 2021.5 -->
<svg xmlns="http://www.w3.org/2000/svg" xml:space="preserve" width="20in" height="2.39583in" version="1.1" style="shape-rendering:geometricPrecision; text-rendering:geometricPrecision; image-rendering:optimizeQuality; fill-rule:evenodd; clip-rule:evenodd"
viewBox="0 0 100735.29 12067.25"
 xmlns:xlink="http://www.w3.org/1999/xlink"
 xmlns:xodm="http://www.corel.com/coreldraw/odm/2003">
 <defs>
  <style type="text/css">
   <![CDATA[
    .fil0 {fill:#E62129;fill-rule:nonzero}
    .fil1 {fill:white;fill-rule:nonzero;fill-opacity:0.039216}
   ]]>
  </style>
 </defs>
 <g id="Layer_x0020_1">
  <metadata id="CorelCorpID_0Corel-Layer"/>
  <polygon class="fil0" points="-0,0 100735.29,0 100735.29,12067.25 -0,12067.25 "/>
  <polygon class="fil1" points="14241.11,2217.05 17748.09,1286.24 17862.51,4054.46 14355.47,4985.01 "/>
  <polygon class="fil1" points="16810.2,3050 19324.28,2348.42 19278.99,4424.42 16764.79,5125.98 "/>
  <polygon class="fil1" points="3073.7,5335.48 8542.07,3884.12 8720.42,8200.19 3252.04,9651.55 "/>
  <polygon class="fil1" points="7079.63,6634.33 10999.84,5540.38 10929.08,8777.43 7008.88,9871.38 "/>
  <polygon class="fil1" points="83502.22,1876.95 86318.24,2540.47 86278.51,4699.38 83462.48,4035.86 "/>
  <polygon class="fil1" points="85086.28,3301.44 87113.34,3811.6 87180.48,5420.63 85153.42,4910.47 "/>
  <polygon class="fil1" points="93219.13,5390.83 97596.89,6422.33 97535.08,9778.74 93157.36,8747.04 "/>
  <polygon class="fil1" points="95681.73,7605.34 98832.92,8398.41 98937.28,10899.88 95786.11,10106.64 "/>
 </g>
</svg>
