<?xml version="1.0" encoding="UTF-8"?>
<!DOCTYPE svg PUBLIC "-//W3C//DTD SVG 1.1//EN" "http://www.w3.org/Graphics/SVG/1.1/DTD/svg11.dtd">
<!-- Creator: CorelDRAW 2021.5 -->
<svg xmlns="http://www.w3.org/2000/svg" xml:space="preserve" width="4.72321in" height="5.12293in" version="1.1" style="shape-rendering:geometricPrecision; text-rendering:geometricPrecision; image-rendering:optimizeQuality; fill-rule:evenodd; clip-rule:evenodd"
viewBox="0 0 955.65 1036.53"
 xmlns:xlink="http://www.w3.org/1999/xlink"
 xmlns:xodm="http://www.corel.com/coreldraw/odm/2003">
 <defs>
  <style type="text/css">
   <![CDATA[
    .fil0 {fill:#E62129}
   ]]>
  </style>
 </defs>
 <g id="Layer_x0020_1">
  <metadata id="CorelCorpID_0Corel-Layer"/>
  <path class="fil0" d="M899.91 167.87c-9.3,-0.27 -15.97,-6.94 -15.58,-15.87 0.37,-9.94 9.31,-19.53 18.16,-19.23 9.9,0.39 20.96,10.43 20.32,18.47 -0.64,9.23 -11.34,16.92 -22.9,16.62zm-234.77 334.46c-0.29,-0.69 -0.56,-1.38 -0.91,-2.06 -8.04,3.48 -16.53,6.17 -23.7,10.77 -5.96,3.71 -7.24,10.46 -2.51,16.63 4.78,6.27 11.24,6.63 17.72,2.83 6.45,-3.99 12.93,-8.04 18.81,-12.81 2.66,-2.19 4.13,-6.07 6.19,-9.23 -3.22,-1.9 -6.37,-4.13 -9.71,-5.67 -1.75,-0.76 -3.83,-0.34 -5.88,-0.46zm-543.91 94.01c1.28,32.17 -18.02,64.15 -42.7,73.44 -3.53,1.3 -7.55,0.8 -11.38,1.17 0.19,-3.48 -0.19,-7.04 0.68,-10.38 6.76,-29.86 28.14,-47.34 53.4,-64.23zm122.8 -24.25c-2.95,16.73 -7.05,32.13 -23.82,38.23 -5.53,1.98 -14.22,2.75 -18.01,-0.27 -3.74,-3.04 -4.78,-11.92 -3.83,-17.7 2.35,-14.52 10.4,-26.5 21.85,-35.73 2.12,-1.65 6.37,-2.37 8.81,-1.42 1.59,0.65 3.03,5.09 2.66,7.62 -1.98,14.06 -2.14,14.01 12.36,9.27zm173.51 23.63c2.66,-17.61 9.33,-30.17 20.67,-40.09 1.36,-1.19 5.69,-1.38 5.99,-0.85 1.3,3.1 3.23,7.06 2.31,9.85 -4.44,13.71 -14.18,22.71 -28.97,31.09zm334.61 0.26c-0.88,0.12 -1.75,0.19 -2.58,0.3 -1.22,4.72 -3.15,9.32 -3.53,14.06 -1.83,22.68 25.17,40.79 48.81,33.4 11.17,-3.51 17.44,-10.53 18.16,-22.29 0.58,-10.65 -5.05,-17.61 -14.36,-21.75 -3.62,-1.61 -7.4,-2.98 -11.17,-4.09 -11.14,-3.41 -15.54,-7.89 -12.39,-18.85 2.81,-9.81 9.25,-18.69 14.59,-27.69 0.95,-1.52 5.17,-2.5 6.83,-1.65 1.67,0.81 3.42,4.91 2.66,6.59 -2.85,7.27 -6.75,14.14 -10.01,21.33 -1.26,2.83 -1.98,5.95 -2.93,8.93 3.45,0.34 7.32,2.06 10.09,0.99 14.04,-5.86 21.58,-17.73 24.72,-31.9 3.3,-14.98 -6.56,-23.74 -21.58,-20.25 -18.35,4.36 -31.17,15.63 -38.17,33.28 -5.36,13.36 -0.65,23.74 12.32,29.38 6.93,3.02 14.22,5.79 20.47,9.92 3.35,2.11 4.89,6.94 7.32,10.54 -4.29,1.61 -8.79,4.94 -12.73,4.44 -15.97,-1.96 -28.22,-10.42 -36.52,-24.67zm-368.1 43.55c-1.28,-4.9 -2.77,-9 -3.22,-13.29 -0.49,-4.21 -0.57,-8.73 0.27,-12.98 8.04,-45.65 22.45,-88.67 52.75,-124.78 4.7,-5.59 3.23,-10.58 -3.34,-13.79 -12.52,-6.06 -26.74,-0.57 -33.18,12.48 -15.86,32.25 -27.2,66.15 -35.11,101.11 -2.63,11.42 -2.74,23.87 -1.42,35.5 1.3,11.81 9.87,16.67 23.25,15.75zm-80.35 -53.46c-1.03,-0.5 -1.94,-1 -2.93,-1.54 4.02,-8.76 7.82,-17.85 12.44,-26.35 4.33,-8.19 -0.76,-11.67 -6.29,-15.19 -5.61,-3.48 -10.17,-3.71 -13.84,3.25 -11.98,22.56 -21.76,45.84 -25.64,71.32 -2.5,16.58 4.7,26.13 21.39,27.57 5.28,0.43 8.31,-0.84 7.86,-7 -1.48,-16.04 5.26,-30.15 11.9,-43.94 3.38,-7 8.84,-12.89 13.47,-19.26 0.83,0.46 1.66,0.96 2.5,1.46 0.08,1.23 0.53,2.56 0.15,3.68 -1.88,5.38 -3.3,11.94 3.23,13.56 6.56,1.71 14.07,0.18 21.04,-0.2 0.75,-0.08 2.23,-2.25 1.96,-3.02 -3.71,-11.54 5.17,-19.46 7.92,-29.12 1.19,-4.66 2.2,-12.63 0,-14.13 -3.7,-2.48 -11.64,-3.09 -14.86,-0.65 -11.61,8.66 -22.07,18.77 -32.45,28.65 -3.35,2.98 -5.28,7.25 -7.86,10.92zm396.03 22.67c1.1,0.93 2.23,1.83 3.42,2.77 1.2,9.8 -7.03,22.17 6.11,28.73 8.83,4.4 18.26,3.98 27.75,-2.01 -9.61,-15.69 -7.47,-31.13 -2.12,-46.3 3.75,-10.63 8.42,-21.11 13.35,-31.21 2.89,-5.79 4.17,-10.75 -1.18,-15.28 -5.61,-4.87 -10.81,-2.35 -14.42,2.83 -7.99,11.75 -15.47,24.09 -23.5,35.88 -5.81,8.5 -11.8,16.85 -18.42,24.79 -1.76,2.13 -6.2,4.06 -8.43,3.24 -2.39,-0.88 -4.02,-4.9 -4.89,-7.92 -0.8,-2.36 -0.43,-5.44 0.49,-7.81 4.89,-12.71 9.59,-25.5 15.21,-37.84 3.87,-8.27 -0.84,-11.88 -6.17,-15.48 -5.44,-3.68 -10.62,-3.6 -14.23,3.04 -3.75,7.3 -8.56,14.44 -11.46,22.21 -4.77,13.09 -9.02,26.46 -12.36,40.02 -2.91,12.37 2.16,23.55 10.89,27.61 9.45,4.37 20.59,0.66 28.82,-9.73 2.93,-3.63 5.73,-7.44 8.31,-11.29 1.18,-1.92 1.92,-4.18 2.85,-6.25zm-205.55 56.69c-0.99,10.61 -2.47,19.84 -2.47,29.08 0,16.07 10.5,27.07 26.28,28.53 20.56,1.88 38.65,-4.21 53.78,-18.38 43.38,-40.6 66.24,-92.71 80.74,-149.23 0.76,-2.69 -1.86,-7.8 -4.44,-9.5 -9.22,-6.09 -20.74,-3.41 -26.32,7.29 -5.69,10.76 -9.93,22.56 -13.35,34.32 -7.74,26.85 -10.96,55.15 -26.36,79.43 -14.32,22.41 -33.52,34.67 -60.75,31.1 -16.76,-2.11 -22.86,-11.75 -17.52,-28.11 4.52,-13.64 2.31,-17.81 -11.8,-16.35 -25.56,2.6 -51.11,5.86 -76.31,10.88 -37.08,7.31 -73.27,21.64 -111.52,8.47 -6.45,14.82 2.58,30.4 18.34,33.24 19.24,3.49 37.66,-0.15 55.49,-6.94 19.8,-7.5 39.11,-16.27 59.02,-23.74 18.28,-6.87 37.38,-10.16 57.18,-10.08zm17.14 -78.9c-0.92,-0.5 -1.82,-0.96 -2.66,-1.38 3.92,-8.62 7.67,-17.35 11.99,-25.69 3.98,-7.75 1.56,-12.5 -5.51,-16.4 -6.93,-3.83 -11.94,-3.04 -15.21,4.63 -6.03,13.75 -12.13,27.43 -18.38,41.09 -1.67,3.56 -2.95,8.29 -5.81,10.04 -12.05,7.4 -24.57,14.36 -37.34,20.42 -3.53,1.69 -9.86,1.19 -13.01,-1.12 -3.61,-2.71 -5.57,-8.27 -6.93,-13.01 -0.27,-0.93 5.38,-4.56 8.5,-5.33 20.66,-4.67 34.12,-17.31 41.14,-36.99 4.9,-13.62 -1.86,-23.03 -16.15,-21.91 -6,0.42 -12.36,2.71 -17.52,5.9 -21.12,13.01 -33.95,32.63 -40.24,56.46 -4.52,17.77 2.81,30.6 19,35.23 17,4.9 30.26,-3.75 43.09,-12.73 7.47,-5.17 14.03,-11.52 19.19,-15.96 6.11,8.16 10.36,16.69 17.06,22.17 9.9,7.97 15.51,4.45 16.73,-7.96 1.28,-13.52 4.89,-26.21 16.42,-38 -1.6,9.27 -3.07,16.02 -3.69,22.83 -0.95,10.3 6.72,11.73 14.23,12.71 8.91,1.15 6.79,-5.55 7.62,-10.57 1.86,-10.12 5.09,-19.69 13.84,-29.23 -2.85,17.08 -5.38,31.06 -7.47,45.17 -1.47,9.22 3.87,14.16 12.07,15.01 7.24,0.77 14.67,-0.61 23.55,-1.15 -11,-21.15 -7.4,-39.75 0.07,-58.17 3.61,-8.62 8.04,-16.96 10.81,-25.85 1.01,-3.27 -1.03,-8.61 -3.49,-11.34 -1.52,-1.73 -6.95,-1.34 -9.71,-0.04 -4.77,2.15 -9.22,5.32 -13.19,8.81 -8.5,7.46 -16.58,15.46 -24.81,23.24 -0.76,-0.5 -1.36,-1.03 -2.12,-1.52 4.6,-7.5 9.29,-15.1 14.87,-24.21 -4.62,-0.46 -7.59,-1.44 -10.15,-0.92 -19.51,4.09 -24.21,24.09 -36.76,35.77zm-263.53 -21.96c-0.56,-17.15 -3.34,-22.74 -14.03,-22.74 -5.8,0 -11.72,3.52 -17.53,5.79 -3.21,1.26 -6.17,4.01 -9.51,4.63 -16.5,3.06 -33.11,5.82 -49.8,8.08 -2.69,0.34 -7.59,-1.54 -8.48,-3.71 -5.2,-12.27 -9.98,-24.79 -14.12,-37.5 -3.21,-10.04 0.27,-19.58 6.27,-27.23 2.31,-3.06 9.14,-4.83 12.81,-3.76 3.15,0.93 5.54,6.71 6.68,10.81 0.72,2.75 -1.59,6.32 -2.17,9.53 -0.79,4.26 -1.26,8.5 -1.92,12.77 5.08,0.19 10.69,2.06 14.86,0.27 17.76,-7.83 30.9,-21 37.73,-39.27 1.94,-5.17 0.57,-12.52 -1.66,-17.92 -2.24,-5.86 -7.67,-7.25 -12.44,-1.42 -3.62,4.36 -7.13,8.84 -10.51,13.36 -4.74,6.17 -9.25,7.25 -15.77,1.88 -4.18,-3.29 -9.98,-5.55 -15.24,-6 -39.03,-3.33 -61.63,30.38 -45.21,66.45 4.25,9.38 7.09,19.43 11.01,28.96 2.56,6.48 0.25,9.62 -5.09,13.83 -14.5,11.48 -29.69,22.79 -41.65,36.81 -9.21,10.75 -15.59,24.84 -19.91,38.61 -5.88,18.53 6.19,35.62 24.2,37.34 17.14,1.73 32.92,-2.5 46.27,-13.72 28.9,-24.05 36.37,-56.18 32.69,-91.91 -0.65,-7.37 -0.65,-12.1 7.66,-14.25 8.64,-2.19 16.88,-5.75 25.48,-8.39 2.74,-0.88 5.88,-0.8 10.77,-1.42 -3.71,6.4 -6.25,10.62 -8.48,15.02 -6.83,13.1 -12.83,26.39 -12.25,41.79 0.27,9.38 4.5,14.88 13.27,17.57 10.5,3.31 18.75,-1.15 26.28,-7.62 4.33,-3.67 8.42,-7.69 13.12,-11.98 6.57,21.31 16.05,28.53 30.88,23.64 -11.88,-17.97 -6.19,-35.77 0.67,-53.4 6.27,-16.5 2.02,-23.98 -14.86,-24.87zm-245.33 34.25c-0.21,-104.45 33.23,-197.18 98.84,-277.37 65.95,-80.44 150.7,-130.42 252.3,-150.91 34.85,-7.02 70.32,-9.08 105.7,-7.54 10.88,0.42 21.73,2.86 32.49,3.51 3.49,0.2 8.68,-1.34 10.51,-3.94 11.74,-15.73 29.8,-15.77 39.84,1.42 4.45,7.62 6.57,16.71 9.14,25.29 4.33,13.63 10.51,17 23.9,12.25 18.99,-6.73 29.87,-22.45 29.61,-42.36 -0.11,-8 -0.19,-16.13 0,-24.1 0.45,-21.98 22.71,-35 41.73,-24.59 4.13,2.25 7.62,5.86 11.94,7.02 4.29,1.17 10.01,1.67 13.6,-0.35 15.98,-8.88 20.11,-8.8 33.31,3.36 17.68,16.62 35.87,14.37 48.87,-6.11 3.23,-4.99 6.19,-10.35 9.14,-15.6 1.75,-3.13 3.03,-6.67 5.24,-9.57 5.84,-7.62 17.9,-9.04 27.11,-3.64 8.8,5.21 12.21,14.37 8.23,23.09 -1.4,2.83 -3.74,5.49 -6.37,7.4 -3.14,2.31 -6.83,4.33 -10.61,5.41 -19.08,5.44 -27.84,13.4 -20.36,37.49 7.16,22.91 23.05,31.29 44.17,25.77 9.03,-2.36 18.75,-3.97 28.03,-3.17 9.03,0.73 12.93,8.43 11.37,17.73 -0.49,2.64 -0.95,5.4 -2.04,7.77 -8.83,18.39 -3.03,33.14 11.26,45.48 13.49,11.52 28.33,14.97 45.28,8.23 8.3,-3.29 16.92,-5.79 25.64,-7.71 10.69,-2.38 21.68,4.21 24.65,13.94 2.5,8.85 -2.12,16.71 -13.47,21.5 -17.9,7.5 -35.79,6.73 -52.23,-3.94 -12.61,-8.12 -24.72,-8.56 -38.63,-3.79 -32.51,11.17 -59.24,28.3 -72.44,62.07 -6.37,16.6 -0.83,30.27 15.85,36.16 9.9,3.44 20.68,4.25 30.84,6.96 18.44,5.06 22.46,17.81 11.64,33.52 -1.94,2.67 -1.74,8.04 -0.45,11.34 13.16,32.68 22.94,66.38 28.22,101.13 5.46,35.07 6.76,70.39 3.42,106.01 -4.9,51.48 -17.33,100.69 -39.48,147.32 -41.9,88.28 -105.91,155.33 -191.44,201.41 -48.31,25.9 -99.82,41.64 -154.08,47.23 -107.17,11.19 -206.46,-13.41 -294.82,-75.84 -92.34,-65.23 -151.83,-154.01 -175.66,-265.69 -6.44,-30.54 -8.38,-62.06 -12.25,-93.08 0.72,-0.19 1.67,-0.38 2.46,-0.5zm691.01 -558.08c2.93,-10 4.41,-20.88 9.3,-29.96 6.49,-12.21 24.09,-14.05 34.78,-5.44 10.69,8.7 11.45,21.89 1.4,33.33 -5.61,6.56 -10.88,13.67 -17.56,19.04 -4.97,4.06 -12.07,8.57 -17.6,7.84 -8.19,-1 -8,-10.03 -8.19,-17.15 -0.12,-2.35 0,-4.68 0,-7 -0.76,-0.23 -1.48,-0.46 -2.14,-0.66z"/>
 </g>
</svg>
