<?xml version="1.0" encoding="UTF-8" standalone="no"?>
<!-- Created with Inkscape (http://www.inkscape.org/) -->

<svg
   version="1.1"
   id="svg9"
   width="3505"
   height="1123"
   viewBox="0 0 3505 1123"
   sodipodi:docname="path343.png.svg"
   inkscape:version="1.1.1 (3bf5ae0d25, 2021-09-20)"
   xmlns:inkscape="http://www.inkscape.org/namespaces/inkscape"
   xmlns:sodipodi="http://sodipodi.sourceforge.net/DTD/sodipodi-0.dtd"
   xmlns:xlink="http://www.w3.org/1999/xlink"
   xmlns="http://www.w3.org/2000/svg"
   xmlns:svg="http://www.w3.org/2000/svg">
  <defs
     id="defs13" />
  <sodipodi:namedview
     id="namedview11"
     pagecolor="#505050"
     bordercolor="#eeeeee"
     borderopacity="1"
     inkscape:pageshadow="0"
     inkscape:pageopacity="0"
     inkscape:pagecheckerboard="0"
     showgrid="false"
     inkscape:zoom="0.11597718"
     inkscape:cx="1314.9139"
     inkscape:cy="189.6925"
     inkscape:window-width="1340"
     inkscape:window-height="743"
     inkscape:window-x="26"
     inkscape:window-y="0"
     inkscape:window-maximized="1"
     inkscape:current-layer="g15" />
  <g
     inkscape:groupmode="layer"
     inkscape:label="Image"
     id="g15">
    <image
       width="3505"
       height="1123"
       preserveAspectRatio="none"
       xlink:href="/opt/lampp/htdocs/sarlemjus/public/guest/img/images/image17.png"
       id="image17"
       style="fill:#ed1c24;fill-opacity:1" />
    <path
       style="fill:#ed1c24;fill-opacity:1"
       d="m 824.15226,-388.53743 c -62.37861,-3.7168 -124.82841,-22.1294 -179.00001,-52.7759 -12.2648,-6.9386 -40.9042,-26.23659 -51.3847,-34.62432 -47.8986,-38.3344 -85.1205,-83.54162 -112.0581,-136.09828 -25.1413,-49.05226 -39.6368,-100.60492 -44.1352,-156.96618 -1.3262,-16.61573 -0.6977,-61.33772 1.0616,-75.53382 8.6498,-69.79979 30.2111,-128.92125 67.1881,-184.23137 69.6875,-104.2385 181.1596,-170.3829 306.32831,-181.7666 16.0002,-1.4551 58.6022,-1.1937 75.6944,0.4646 17.3578,1.6841 19.4542,1.2845 25.7599,-4.9093 5.4057,-5.3099 10.5756,-7.6645 16.9026,-7.6984 6.1438,-0.033 9.8366,1.4846 14.4808,5.9506 5.1388,4.9417 9.3912,13.6 12.1487,24.736 2.9626,11.9646 4.2929,14.5823 8.5148,16.7555 10.545,5.428 33.2223,-7.0548 40.96504,-22.5493 l 3.0981,-6.1997 -0.6465,-19.0261 c -0.6087,-17.918 -0.5211,-19.3554 1.5049,-24.6827 2.6427,-6.9492 9.0326,-13.2037 15.2367,-14.914 6.48,-1.7863 14.6364,-0.021 27.4816,5.9483 15.298,7.109 16.1175,7.0176 22.9511,-2.5588 9.9401,-13.9299 18.384,-13.7688 25.8786,0.4935 3.6517,6.9491 7.8783,11.2288 14.5293,14.7116 5.108,2.6748 15.2849,2.5521 20.5968,-0.2484 6.187,-3.2617 13.3379,-11.7912 19.4303,-23.176 9.9884,-18.6652 11.608,-20.0952 22.7628,-20.0979 7.2826,0 12.5431,2.2286 16.5846,7.0317 3.2453,3.8568 4.0008,6.7089 3.409,12.8689 -0.7779,8.095 -3.8771,10.9133 -18.8584,17.1491 -4.7163,1.9631 -10.2819,4.6242 -12.3681,5.9135 -14.9207,9.2215 -6.1945,43.2868 13.5348,52.8376 6.0738,2.9403 13.6373,2.847 24.505,-0.3024 17.1324,-4.9648 31.6921,-2.8393 35.0142,5.1116 2.0625,4.9362 1.0261,9.1294 -5.2861,21.3885 -4.3577,8.4632 -5.5191,11.7618 -5.9874,17.0051 -1.6233,18.1747 7.9403,31.9949 22.1406,31.9949 3.588,0 8.4011,-1.2201 15.7744,-3.9986 13.9817,-5.2688 23.0337,-7.3316 29.0999,-6.6315 17.3601,2.0037 23.817,21.226 10.2622,30.5508 -6.5776,4.525 -13.0973,6.3641 -22.6147,6.3791 -7.4943,0.012 -9.8196,-0.4723 -19.6533,-4.0925 -19.0627,-7.0178 -37.6789,-8.9631 -51.4279,-5.3741 -23.9233,6.2451 -42.2787,33.6598 -40.619,60.6668 0.6978,11.356 3.6605,18.5144 10.5895,25.5863 6.2518,6.3809 8.0772,7.1196 23.3943,9.4673 16.3248,2.5021 23.8708,6.39831 26.6528,13.76147 1.8398,4.86941 1.1767,9.68279 -2.4364,17.6849 -1.925,4.26345 -3.5,8.46976 -3.5,9.34737 0,0.8776 2.4297,8.02096 5.3992,15.87413 9.7771,25.85618 16.0219,48.38998 21.0008,75.7785 7.8358,43.10523 8.0424,96.04338 0.5473,140.23869 -19.556,115.31217 -86.7879,216.38096 -185.9472,279.53158 -54.6509,34.80503 -117.98204,56.37363 -182.50004,62.15373 -16.6792,1.4943 -46.3302,2.0082 -62,1.0745 z m 1986.99994,-8.3914 c -37.5772,-6.234 -62.7103,-25.9656 -74.5574,-58.53395 -5.6748,-15.60032 -7.2768,-26.1666 -7.3644,-48.57315 -0.1015,-25.95713 2.253,-38.42856 12.354,-65.43708 3.4597,-9.25047 3.2207,-12.21453 -1.2114,-15.02812 -3.9813,-2.52732 -17.8018,-2.38458 -41.2208,0.42572 -64.677,7.76128 -102.0602,15.85803 -154.5,33.46282 -28.85,9.68536 -55.0876,20.18809 -99.8152,39.95539 -57.3796,25.35884 -79.9732,34.43812 -109.4421,43.97964 -75.6887,24.50673 -151.7754,25.72893 -190.4188,3.05874 -3.2031,-1.87913 -9.8907,-7.46672 -14.8613,-12.41686 -7.3139,-7.2838 -9.8369,-10.6213 -13.2291,-17.50025 -7.4969,-15.20267 -10.3364,-32.4986 -8.3477,-50.84841 1.7762,-16.38925 3.7426,-17.09012 24.3841,-8.6911 14.963,6.08842 23.9241,8.7298 37.2301,10.97391 45.4691,7.66855 116.6085,1.85455 202.5,-16.54971 22.116,-4.73888 36.0009,-8.01784 117.5,-27.74815 56.9334,-13.78312 90.6132,-20.5493 142.4254,-28.61277 37.0536,-5.7666 49.3105,-6.89846 75.0746,-6.93272 24.0347,-0.032 31.2031,0.64845 48.5,4.6034 21.8207,4.98933 23.1365,8.83413 13.4511,39.30555 -6.0188,18.93594 -8.5668,29.45863 -9.4435,39 -2.6532,28.87337 15.8433,52.36572 48.734,61.89708 15.6532,4.53611 28.3134,5.91076 48.7584,5.29416 27.9501,-0.84294 47.5249,-5.80228 73.8154,-18.70135 60.0358,-29.4558 102.6851,-83.4173 131.9832,-166.98989 10.5589,-30.11905 17.2695,-53.89617 29.2109,-103.5 22.3201,-92.71665 27.1069,-110.77184 35.6224,-134.36361 9.0068,-24.95305 22.5047,-49.46555 34.4135,-62.49563 20.1835,-22.08399 50.0091,-26.22105 80.0331,-11.10123 15.3011,7.7055 16.5414,12.88255 8.9746,37.46047 -1.6086,5.225 -4.7082,16.7 -6.888,25.5 -7.9151,31.95374 -17.6896,61.00985 -36.0225,107.08152 -55.9776,140.67524 -111.854,234.9347 -181.4355,306.06867 -43.4646,44.43431 -77.8051,69.93791 -111.3725,82.71291 -11.3944,4.3365 -29.5493,9.0164 -45.3346,11.6861 -15.9464,2.697 -47.6327,3.5267 -59.5,1.5579 z m -1432,-93.18096 c -21.1053,-2.96425 -31.2672,-5.69058 -42.9024,-11.5102 -55.0474,-27.53335 -62.412,-91.34036 -20.1311,-174.41594 11.8014,-23.18801 23.1503,-40.25488 41.0658,-61.75628 39.4415,-47.33612 95.6143,-95.39968 140.4628,-120.18539 14.8355,-8.19887 18.9941,-12.56782 19.0012,-19.96215 0,-4.74899 -11.5009,-45.35297 -17.7371,-62.59618 -5.8105,-16.06612 -11.9284,-30.37195 -19.2044,-44.9068 -12.1991,-24.36927 -18.3197,-40.64767 -21.7021,-57.71917 -2.6679,-13.4657 -2.4328,-40.569 0.469,-54.0624 9.3328,-43.3975 35.4883,-78.0115 73.1757,-96.8403 9.9956,-4.9938 30.9288,-11.7973 44.5026,-14.4637 22.4988,-4.4197 48.4951,-3.7493 66,1.702 10.0767,3.1381 12.5138,4.6457 24.9164,15.4138 13.6034,11.8106 19.2774,15.1545 26.6153,15.6852 4.7175,0.3413 6.8611,-0.071 11.56,-2.222 11.7483,-5.3785 18.822,-13.4178 33.7872,-38.3989 9.6944,-16.1828 10.7427,-17.6497 17.8109,-24.9241 13.2852,-13.6727 24.3035,-13.8333 35.7233,-0.5206 17.4582,20.352 18.5099,49.3199 2.9235,80.5296 -8.1229,16.2652 -25.2408,39.6425 -41.6677,56.9044 -25.024,26.2959 -63.8136,52.3421 -87.7178,58.9001 -18.486,5.0716 -37.1961,-0.9873 -42.0151,-13.6056 -1.5982,-4.1847 -1.601,-4.751 -0.044,-8.8286 0.9152,-2.3964 3.5074,-6.7839 5.7604,-9.75 5.7402,-7.5569 12.4113,-21.9462 14.8061,-31.9365 5.3385,-22.2698 0.033,-41.0403 -14.3288,-50.6928 -6.3787,-4.2872 -11.618,-5.5813 -20.3498,-5.0266 -21.8584,1.3888 -41.2598,22.9252 -50.0166,55.5208 -2.3476,8.7384 -2.6239,11.5968 -2.6818,27.7422 -0.05,14.0072 0.3471,19.8834 1.7918,26.4909 2.6621,12.1762 11.3397,36.8171 21.7802,61.84706 14.4539,34.65156 16.873,40.9752 20.4569,53.47559 3.9046,13.61897 4.5383,15.03376 8.7055,19.43642 4.048,4.27676 7.3721,4.24582 23.5859,-0.21955 54.978,-15.14128 100.0165,-22.71113 145.5979,-24.47139 29.2088,-1.12798 30.7554,-1.67704 48,-17.04065 23.2918,-20.75122 56.8509,-27.00959 79.6555,-14.85482 11.2957,6.0205 19.6421,18.22819 21.7857,31.86435 1.0548,6.70953 0.7095,10.22033 -2.4516,24.92896 -3.2966,15.33909 0.9888,18.64919 18.0752,13.96159 6.5847,-1.80646 8.2377,-1.92546 12.5101,-0.90053 6.718,1.61163 15.3122,7.38516 22.0094,14.78579 8.1722,9.03063 11.1467,15.05141 11.6737,23.62908 0.4857,7.90588 -0.1822,10.07115 -10.0457,32.56717 -11.0152,25.12281 -20.5332,56.91877 -24.0975,80.5 -4.873,32.2396 -2.1068,56.6496 8.6693,76.5 7.7171,14.21544 11.4467,22.11266 12.236,25.9091 l 0.7087,3.40911 -11.3644,-0.62064 c -28.503,-1.55663 -47.5863,-8.54934 -62.0532,-22.73808 -11.9018,-11.67303 -15.9262,-21.55566 -19.2409,-47.2496 -1.4356,-11.12789 -2.357,-13.29809 -6.2792,-14.78931 -3.8645,-1.46928 -6.6975,0.51729 -15.7773,11.06336 -15.0652,17.49808 -24.1713,25.64125 -40.6257,36.32958 -41.7938,27.14799 -77.6516,28.13218 -102.5723,2.8153 -6.121,-6.21835 -11.8041,-17.2174 -13.8254,-26.75792 -4.2913,-20.25486 0.2949,-53.51366 12.0479,-87.37115 8.0797,-23.27548 23.9421,-56.99262 35.0489,-74.49975 19.6615,-30.99151 20.9245,-33.98835 16.2805,-38.63225 -4.3756,-4.37561 -10.7661,-2.6951 -96.0648,25.26204 -42.5152,13.93458 -46.6296,15.81786 -49.4843,22.65021 -1.8063,4.32297 -1.3487,9.96028 2.2087,27.21032 4.8298,23.4205 5.6921,62.90543 2.0355,93.20911 -6.6969,55.49905 -26.0724,109.91363 -54.052,151.80057 -37.8621,56.68165 -87.4802,90.09429 -148.5108,100.00649 -11.7711,1.91178 -39.7501,3.36768 -46.5,2.41965 z m -17.4687,-70.43252 c 50.6465,-10.32109 94.762,-49.68154 126.4866,-112.85291 24.8106,-49.40384 41.2987,-116.15054 31.8365,-128.87994 -6.1161,-8.22796 -20.6099,-0.83047 -56.3544,28.7626 -44.3474,36.71552 -68.049,61.29179 -88.0142,91.26217 -19.3939,29.11296 -33.123,64.39817 -39.5182,101.56599 -1.8659,10.84415 -1.2727,16.43425 2.102,19.80893 3.0195,3.01955 9.8065,3.11592 23.4617,0.33316 z m 466.4687,-191.4566 c 8.3437,-3.30552 28.5883,-15.15936 40.6808,-23.81992 24.6312,-17.6407 42.0744,-37.18118 51.8918,-58.13088 10.1657,-21.69321 13.4613,-39.72034 8.9609,-49.01699 -1.2128,-2.5054 -3.4787,-5.46209 -5.0352,-6.57042 -6.6472,-4.73324 -12.7728,-3.44147 -28.4165,5.99249 -10.8167,6.52308 -15.4184,7.96927 -19.0957,6.00128 -5.8803,-3.14706 -5.7573,-10.93373 0.4004,-25.34623 7.2908,-17.06472 7.6929,-23.55353 2.0695,-33.3997 -7.6721,-13.4334 -22.6894,-14.83187 -39.4938,-3.67781 -23.3001,15.46574 -55.9087,62.5182 -68.3013,98.55518 -12.8601,37.39629 -11.6444,62.9109 3.7742,79.21381 9.5083,10.0537 19.552,13.80784 35.5649,13.29354 8.0765,-0.2594 11.3465,-0.8546 17,-3.09435 z m 247.5,103.34422 c -3.575,-0.39524 -13.7,-2.78976 -22.5,-5.32115 -30.4193,-8.75037 -47.4632,-19.56209 -54.9864,-34.88052 -7.9886,-16.26585 -7.3576,-30.09411 3.5402,-77.58336 11.6854,-50.92166 27.0238,-95.12258 50.6977,-146.09621 11.4049,-24.55658 31.8447,-65.92617 34.0202,-68.85611 5.0862,-6.84999 11.8751,-7.66851 25.5808,-3.08422 11.8958,3.97894 20.9277,9.08828 27.1831,15.37751 6.9855,7.02329 8.9644,11.45221 8.9644,20.06282 0,7.7176 -0.7106,9.48733 -12.4473,31 -3.3008,6.05 -9.23,17.975 -13.176,26.5 -3.9461,8.525 -9.8444,21.27814 -13.1073,28.34031 -7.0066,15.16508 -8.3353,22.09378 -4.8962,25.53288 2.2526,2.25261 6.0891,2.75254 9.0329,1.17706 2.2931,-1.22724 9.5309,-11.85823 20.5194,-30.13938 24.0083,-39.94178 53.3083,-69.9726 88.4554,-90.66178 20.5368,-12.08884 38.2926,-18.24909 52.5997,-18.24909 15.2795,0 23.4523,6.8735 25.7336,21.64252 1.9584,12.67896 -1.8069,22.73879 -24.6258,65.79266 -9.1508,17.26531 -12.9807,27.3972 -14.6832,38.8439 -1.2911,8.68055 -0.4972,11.23883 6.8034,21.92359 2.55,3.7321 4.4171,7.00495 4.1491,7.273 -0.2681,0.26806 -6.7582,2.09661 -14.4226,4.06346 -32.1826,8.25883 -51.6287,8.62131 -65.6642,1.22399 -6.2229,-3.27972 -9.759,-7.22138 -12.9499,-14.43484 -3.2365,-7.31671 -2.7295,-12.56586 2.1516,-22.27388 2.6869,-5.34388 4.4005,-10.26879 4.7494,-13.6502 0.5065,-4.90701 0.3247,-5.51137 -2.5111,-8.34711 -3.4632,-3.4632 -8.3476,-4.07201 -13.0714,-1.62925 -4.2254,2.18504 -14.9967,14.14901 -21.2443,23.59662 -27.4693,41.53869 -47.7138,88.60002 -57.4147,133.46855 -3.6206,16.74602 -4.0769,27.14733 -2.0442,46.59122 1.9321,18.48186 1.5163,21.44679 -3.1509,22.47136 -1.532,0.3363 -3.2354,0.70884 -3.7854,0.82786 -0.55,0.11902 -3.925,-0.10697 -7.5,-0.50221 z m 1593.675,-3.87015 c -37.727,-4.75579 -69.6787,-20.16223 -88.7329,-42.78509 -19.9739,-23.71468 -24.6427,-52.35956 -14.8618,-91.1817 3.1591,-12.53868 6.5699,-19.05507 11.6128,-22.1861 l 3.1931,-1.98252 4.6634,9.81216 c 6.7229,14.14563 12.2575,21.94962 22.4357,31.63558 20.778,19.77291 56.8974,38.13416 87.0241,44.23862 11.4884,2.32784 26.5886,1.65307 33.77,-1.50903 9.0457,-3.98297 16.2192,-13.74501 16.2053,-22.05301 -0.01,-4.3716 -4.7501,-12.89616 -10.2053,-18.34269 -11.5847,-11.56645 -28.544,-21.05716 -59.2794,-33.17383 -12.1,-4.77012 -26.05,-10.69492 -31,-13.16622 -28.0426,-14.00033 -40.7437,-32.75482 -40.8488,-60.31726 -0.052,-13.5651 2.4863,-22.85176 10.881,-39.81352 23.7352,-47.95774 64.0215,-83.28685 109.4678,-95.99795 8.5659,-2.3958 11.1715,-2.6583 26.5,-2.6697 13.677,-0.01 18.1626,0.3455 22.9477,1.8197 20.6113,6.3497 30.4588,17.24744 32.5981,36.07463 3.6037,31.71446 -12.9527,71.65632 -43.0699,103.90562 -16.9095,18.10649 -36.7567,29.37947 -55.0004,31.23954 -12.9278,1.31808 -18.9755,-2.54161 -18.9755,-12.11027 0,-7.84525 2.4581,-12.36294 16.0227,-29.44805 20.5778,-25.91852 27.1806,-37.33239 31.1174,-53.79074 4.6943,-19.62513 -0.4581,-34.81846 -12.9356,-38.14401 -10.4698,-2.79046 -23.792,6.7291 -39.7931,28.43475 -25.4475,34.51973 -37.5956,72.09016 -31.9399,98.78039 3.5324,16.67018 14.4041,27.57994 35.5285,35.653 3.025,1.15606 13.1472,4.38103 22.4938,7.16661 27.3138,8.1404 37.8429,13.9765 51.394,28.48693 25.211,26.99571 23.8338,67.29523 -3.2848,96.12322 -11.6872,12.42383 -25.7434,20.37294 -42.103,23.81023 -9.2489,1.94326 -35.4687,2.7962 -45.825,1.49071 z m -700.6252,-7.0295 c -26.3536,-2.74938 -40.3326,-8.73331 -44.4518,-19.02833 -3.5563,-8.88811 -3.8624,-17.44304 -1.6381,-45.79389 3.8298,-48.81544 6.2527,-60.04011 22.4667,-104.0822 2.5154,-6.83255 4.5734,-14.0952 4.5734,-16.13921 0,-4.91947 -2.6015,-8.03196 -6.8134,-8.15172 -6.7943,-0.19318 -12.3436,6.52911 -23.9246,28.98191 -13.2749,25.73675 -20.2995,49.96509 -22.3656,77.14084 -1.0082,13.25993 -3.0876,20.05261 -6.7366,22.00549 -3.211,1.71845 -15.1191,1.26655 -23.7498,-0.90128 -11.7874,-2.96073 -27.0213,-10.82115 -32.6647,-16.85443 -6.4387,-6.88343 -8.219,-13.26906 -7.427,-26.63826 0.7384,-12.46413 3.1698,-21.75131 10.8513,-41.44767 3.8746,-9.93508 6.0397,-16.96479 6.0818,-19.74631 0.084,-5.56147 -2.2736,-8.32653 -7.0998,-8.32653 -2.9629,0 -4.3609,0.85635 -8.595,5.26495 -6.6884,6.964 -20.2458,30.91707 -27.1097,47.89696 -9.5594,23.64825 -17.4388,60.93035 -17.4443,82.53887 0,12.69397 -1.4613,19.84881 -4.7062,23.09369 -2.2125,2.21249 -3.0537,2.41078 -8.1321,1.91682 -7.6877,-0.74777 -22.0782,-5.04438 -31.0755,-9.27831 -9.9288,-4.67223 -18.292,-10.78377 -26.114,-19.08319 -13.1187,-13.91939 -18.5093,-25.03841 -21.9687,-45.31408 -2.2036,-12.91569 -2.9301,-15.07991 -6.3054,-18.78571 -4.1186,-4.52184 -5.5737,-3.56228 -28.0558,18.50093 -11.6297,11.41302 -24.4987,23.63167 -28.5978,27.15257 -24.3982,20.95659 -55.4247,39.40496 -80.7849,48.03477 -16.3276,5.55612 -25.3591,7.17077 -43.2622,7.7345 -14.3405,0.45154 -17.8709,0.23673 -26.9744,-1.64129 -12.2409,-2.52523 -25.4934,-7.2927 -33.6761,-12.11462 -3.189,-1.87927 -9.2519,-6.83171 -13.473,-11.00542 -9.7002,-9.59119 -15.9324,-21.57035 -19.0376,-36.59281 -2.8508,-13.79163 -2.1777,-39.55784 1.4712,-56.31863 13.196,-60.61335 51.8215,-120.94384 104.6899,-163.51883 29.4807,-23.74083 63.4251,-38.51801 88.3605,-38.46639 20.6465,0.0428 39.861,11.27025 45.6173,26.65533 13.0791,34.95718 -14.5936,94.14659 -61.3217,131.16155 -21.2507,16.83348 -44.8922,26.83628 -77.1561,32.64508 -22.9664,4.13487 -26.566,6.28753 -27.2918,16.3211 -0.5581,7.71633 2.0695,21.07626 5.6237,28.5927 7.9739,16.86352 22.5324,24.56199 46.511,24.59468 32.1234,0.0438 65.0022,-14.31608 119.3138,-52.11047 20.9572,-14.58364 30.8611,-23.51046 34.6351,-31.21798 1.4662,-2.99431 4.2417,-11.22953 6.1679,-18.30048 7.2287,-26.53692 21.9436,-63.25447 38.8654,-96.97978 7.6408,-15.22801 26.0137,-48.23484 29.8429,-53.61239 8.5133,-11.95593 32.6013,-7.06315 51.3284,10.42592 11.4471,10.69034 14.6893,19.36361 11.0714,29.61771 -0.7877,2.23256 -4.1945,8.70164 -7.5707,14.37573 -3.3762,5.67408 -8.3058,14.81652 -10.9547,20.31652 -8.0339,16.68129 -25.8005,56.96581 -26.9511,61.1098 -2.4138,8.69331 -0.4793,13.3902 5.5149,13.3902 4.5074,0 6.57,-2.01628 15.2499,-14.90757 13.4187,-19.92906 40.9799,-57.99242 49.7312,-68.68111 12.8874,-15.74057 23.6933,-24.76098 37.7189,-31.48646 9.8411,-4.719 19.3559,-6.8841 30.3558,-6.9075 7.1511,-0.0152 22.8733,2.18458 24.0543,3.36559 0.8046,0.80467 -3.5256,8.13358 -7.4547,12.61705 -10.4133,11.88254 -32.9695,44.53535 -39.9432,57.82266 -3.9592,7.54362 -4.1418,10.44481 -0.8639,13.72279 5.6919,5.69191 10.6281,2.50651 26.8868,-17.35074 11.9029,-14.53729 49.5743,-52.02543 63.6587,-63.34898 31.8724,-25.62468 56.3265,-35.19112 71.3572,-27.91488 11.49,5.56224 16.7635,19.35336 13.2048,34.53337 -2.2998,9.81043 -6.9451,21.02174 -21.6992,52.37099 -19.6873,41.83139 -27.8037,63.75807 -34.3005,92.66479 -5.5336,24.62108 -7.0926,52.7416 -4.0472,73 1.9717,13.11602 2.339,14.18546 11.5054,33.5 4.3069,9.075 8.106,17.46994 8.4425,18.65543 0.5515,1.94331 -0.1546,2.40635 -7.1756,4.70498 -15.9777,5.23101 -38.4485,7.47706 -56.2376,5.62118 z m -464.247,-156.72565 c 13.9214,-6.92136 47.0481,-37.74353 59.3897,-55.25823 18.1516,-25.75997 25.2978,-51.81049 18.3228,-66.79284 -2.0748,-4.45677 -3.2059,-5.62282 -7.144,-7.36484 -9.4389,-4.17527 -19.6486,-0.2363 -33.4636,12.91044 -15.1258,14.39419 -26.9521,31.89362 -38.0141,56.24953 -10.8739,23.94193 -17.8936,45.32759 -17.8936,54.51315 0,9.59358 6.8496,11.68559 18.8028,5.74279 z m 959.013,156.73547 c -18.3282,-2.11125 -33.3312,-7.39763 -38.8574,-13.69152 -5.2601,-5.99097 -6.462,-12.4031 -6.4292,-34.29989 0.023,-15.26471 0.5308,-22.75432 2.3384,-34.48349 2.4977,-16.20764 2.092,-21.39738 -1.8371,-23.50019 -5.6776,-3.03853 -9.1947,-0.0103 -22.2439,19.15191 -29.6879,43.59524 -54.1167,64.99483 -81.5728,71.4577 -23.9543,5.63859 -52.9226,-7.97865 -63.6915,-29.93972 -6.5911,-13.44134 -7.872,-20.51068 -7.9156,-43.68621 -0.054,-28.62325 3.7975,-51.54674 13.9695,-83.14815 11.224,-34.86986 32.9295,-82.63941 57.305,-126.11688 13.2784,-23.68423 14.3345,-25.17688 19.6247,-27.73782 5.5281,-2.67609 8.0937,-2.53261 18.8466,1.05395 17.0432,5.68467 30.3429,15.67327 35.3075,26.51742 4.7597,10.39656 2.3809,19.12219 -11.7291,43.02288 -11.0097,18.64916 -27.1478,55.51861 -34.3201,78.4086 -5.4018,17.23965 -7.655,29.07277 -8.3004,43.59103 -0.9313,20.95251 3.1049,33.74559 12.6896,40.21996 2.9635,2.00181 4.4516,2.30561 9.7079,1.9819 5.47,-0.33687 7.0461,-0.95504 13.2604,-5.20112 22.0138,-15.04133 44.8988,-45.88432 86.5093,-116.59177 28.4927,-48.41666 46.4128,-76.31544 57.9748,-90.25749 11.7812,-14.20629 22.79,-20.12547 33.1279,-17.81196 10.6888,2.39206 22.3035,14.2043 25.9109,26.35169 3.5203,11.85428 1.2795,18.67258 -15.3539,46.71776 -13.317,22.45362 -30.1473,62.28023 -39.0136,92.32042 -8.3784,28.38747 -11.6351,51.67859 -10.8551,77.63413 0.699,23.25965 3.0226,32.59737 12.2151,49.08982 5.2987,9.50631 9.5163,18.61375 9.5163,20.54921 0,0.72081 -16.8874,5.3752 -25,6.89032 -10.4402,1.94983 -30.8567,2.69716 -41.1842,1.50751 z m -1105.5037,-4.52084 c -24.3033,-6.54815 -41.8145,-19.3319 -51.2048,-37.38112 -16.0008,-30.75557 -14.6836,-75.84753 4.5011,-154.08945 4.3803,-17.86443 19.9245,-72.96965 26.3748,-93.5 19.5221,-62.13657 36.4036,-107.48257 57.5174,-154.49997 4.5692,-10.175 11.534,-26.15 15.4773,-35.5 7.9396,-18.8258 11.8886,-26.4427 19.3489,-37.3206 9.5547,-13.9319 22.9154,-23.651 38.1732,-27.7686 8.9994,-2.4287 36.851,-3.0553 46.3282,-1.0424 20.201,4.2907 30.1395,14.1694 30.162,29.9804 0.01,4.4235 -0.6008,8.1419 -1.7145,10.5 -0.9483,2.0082 -7.1444,9.2762 -13.7691,16.1512 -16.8628,17.5 -31.7128,38.4516 -50.8401,71.7293 -47.2205,82.15437 -80.1652,166.24668 -101.5739,259.27067 -10.2803,44.66906 -13.1113,63.85012 -13.0577,88.47014 0.043,19.81945 1.4454,27.85428 7.3752,42.25953 7.9115,19.21941 7.3165,24.33539 -2.8151,24.20452 -2.8022,-0.0362 -7.4296,-0.69482 -10.2829,-1.46362 z m 874.6879,-351.56854 c -13.827,-2.3957 -27.6297,-12.9968 -31.996,-24.5744 -3.2297,-8.5635 -2.5193,-19.5182 1.8178,-28.0316 3.9902,-7.8325 13.2972,-17.8356 21.67,-23.2907 13.4885,-8.7881 35.5615,-16.2605 56.257,-19.0448 11.4556,-1.5411 33.3882,-0.7181 41.7512,1.5668 13.4245,3.6678 24.3941,11.2181 26.0847,17.954 2.5788,10.2747 -5.4783,17.8236 -40.0868,37.5587 -21.9938,12.5417 -26.7786,15.7577 -36.9979,24.8677 -13.3025,11.8586 -24.0735,15.4939 -38.5,12.9943 z m -1971.8811,-194.0126 c -5.242,-2.6661 -8.7253,-9.1073 -7.6993,-14.2372 2.9239,-14.6196 14.6944,-20.6591 27.0486,-13.8789 12.5066,6.8638 12.8627,19.9188 0.7237,26.5257 -7.0342,3.8285 -14.5083,4.4207 -20.073,1.5904 z m -256.7235,-72.7902 c -6.00304,-3.6605 -9.10854,-12.0296 -6.36564,-17.1547 2.41534,-4.5131 11.33554,-6.3584 16.87914,-3.4917 2.6021,1.3456 4.011,3.6823 5.576,9.248 0.9167,3.2601 -1.2253,10.004 -3.736,11.7625 -2.9864,2.0918 -8.5972,1.9265 -12.3535,-0.3641 z m 95.7797,-22.6055 c -4.2418,-3.5692 -5.5756,-10.0878 -4.8871,-23.8837 0.6407,-12.8377 2.5751,-20.9347 6.3719,-26.6721 5.1557,-7.7908 16.2137,-11.6332 25.7749,-8.9562 8.796,2.4627 16.4922,11.8006 16.5434,20.0719 0.038,6.2172 -4.4194,13.0625 -17.2429,26.4778 -15.2481,15.9519 -20.159,18.3486 -26.5602,12.9623 z"
       id="path160" />
  </g>
</svg>
